<svg width="33" height="32" viewBox="0 0 33 32" fill="none" xmlns="http://www.w3.org/2000/svg">
<path d="M24.9994 30.625C22.916 30.625 20.4994 29.9167 17.7494 28.5C14.9994 27.0833 12.291 25.0833 9.62436 22.5C7.2077 20.25 5.27003 17.9373 3.81136 15.562C2.3527 13.1867 1.4777 10.999 1.18636 8.999C0.89503 6.999 1.29103 5.45733 2.37436 4.374C2.4577 4.20733 2.62436 4.08233 2.87436 3.999L6.99936 1.624C7.49936 1.374 8.02036 1.31134 8.56236 1.436C9.10436 1.56067 9.50036 1.83167 9.75036 2.249L12.8754 6.624C13.2087 7.124 13.313 7.624 13.1884 8.124C13.0637 8.624 12.7927 9.04067 12.3754 9.374L10.5004 10.624C10.417 10.624 10.3754 10.6657 10.3754 10.749L10.5004 10.874C11.5837 12.4573 12.8754 14.0407 14.3754 15.624C16.6254 18.0407 19.0837 20.0407 21.7504 21.624C21.8337 21.7073 21.917 21.7283 22.0004 21.687C22.0837 21.6457 22.167 21.6247 22.2504 21.624L23.5004 19.874C23.8337 19.374 24.2714 19.0823 24.8134 18.999C25.3554 18.9157 25.8764 19.0407 26.3764 19.374L31.0014 22.249C31.418 22.5823 31.689 22.999 31.8144 23.499C31.9397 23.999 31.877 24.499 31.6264 24.999L29.1264 28.999C29.043 29.1657 28.918 29.3323 28.7514 29.499C27.8347 30.249 26.5847 30.624 25.0014 30.624L24.9994 30.625ZM8.12436 3.125H7.87436L3.62436 5.5C2.87436 6.33334 2.66603 7.56267 2.99936 9.188C3.3327 10.8133 4.12436 12.6677 5.37436 14.751C6.79103 17.001 8.62436 19.1887 10.8744 21.314C13.1244 23.4393 15.416 25.1687 17.7494 26.502C19.916 27.752 21.8954 28.523 23.6874 28.815C25.4794 29.107 26.7504 28.9193 27.5004 28.252L30.1254 24.127C30.2087 23.9603 30.167 23.8353 30.0004 23.752L25.5004 20.877H25.1874C25.1874 20.877 25.1247 20.9187 24.9994 21.002L23.6244 22.752C23.291 23.1687 22.8534 23.4187 22.3114 23.502C21.7694 23.5853 21.29 23.502 20.8734 23.252C18.04 21.5853 15.415 19.4603 12.9984 16.877C11.415 15.2103 10.0817 13.5437 8.99836 11.877C8.66503 11.4603 8.5607 10.9603 8.68536 10.377C8.81003 9.79367 9.08103 9.377 9.49836 9.127L11.3734 7.877C11.4567 7.877 11.4984 7.83534 11.4984 7.752V7.502L8.37336 3.252C8.29003 3.16867 8.2067 3.127 8.12336 3.127L8.12436 3.125Z" fill="#A40731"/>
</svg>
