<svg width="50" height="50" viewBox="0 0 50 50" fill="none" xmlns="http://www.w3.org/2000/svg">
<path d="M10.6839 33.9452C10.1908 33.9452 9.79107 34.3449 9.79107 34.838C9.79107 35.3113 9.40625 35.6964 8.93315 35.6964C8.45982 35.6964 8.07478 35.3113 8.07478 34.838C8.07478 34.3648 8.45982 33.9799 8.93315 33.9799C9.42623 33.9799 9.826 33.5801 9.826 33.087C9.826 32.5939 9.42623 32.1942 8.93315 32.1942C7.47522 32.1942 6.28906 33.3802 6.28906 34.838C6.28906 36.2959 7.47522 37.4821 8.93315 37.4821C10.3908 37.4821 11.5768 36.2959 11.5768 34.838C11.5768 34.3448 11.177 33.9452 10.6839 33.9452Z" fill="#42403F"/>
<path d="M42.8675 33.9452C42.3744 33.9452 41.9747 34.3449 41.9747 34.838C41.9747 35.3113 41.5898 35.6964 41.1167 35.6964C40.6434 35.6964 40.2584 35.3113 40.2584 34.838C40.2584 34.3648 40.6434 33.9799 41.1167 33.9799C41.6098 33.9799 42.0096 33.5801 42.0096 33.087C42.0096 32.5939 41.6098 32.1942 41.1167 32.1942C39.6588 32.1942 38.4727 33.3802 38.4727 34.838C38.4727 36.2959 39.6588 37.4821 41.1167 37.4821C42.5744 37.4821 43.7604 36.2959 43.7604 34.838C43.7604 34.3448 43.3606 33.9452 42.8675 33.9452Z" fill="#42403F"/>
<path d="M49.8761 22.5268L46.453 16.727C45.279 14.7681 44.1712 13.6243 41.9539 13.4309C41.8813 13.4118 41.8048 13.4015 41.726 13.4015H34.8772V11.5879C34.8772 10.6033 34.0761 9.80219 33.0915 9.80219H1.78571C0.801116 9.80219 0 10.6033 0 11.5879V33.9452C0 34.9299 0.801116 35.7309 1.78571 35.7309H3.64855C4.07522 38.2626 6.28159 40.1977 8.9327 40.1977C11.5833 40.1977 13.7892 38.2626 14.2157 35.7309H35.8327C36.2594 38.2626 38.4657 40.1977 41.1169 40.1977C43.7674 40.1977 45.9733 38.2626 46.3999 35.7309H49.1071C49.6002 35.7309 50 35.3311 50 34.838V22.9806C50 22.821 49.9571 22.6642 49.8761 22.5268ZM46.4758 25.9481C46.4758 25.4558 46.8763 25.0552 47.3686 25.0552H48.2143V26.8129H46.4758V25.9481ZM47.6788 22.3173H39.4767C39.4179 22.3051 39.3569 22.2986 39.2944 22.2986C38.7922 22.2986 38.3836 21.89 38.3836 21.3877V17.81H45.0186L47.6788 22.3173ZM1.78571 11.5879H33.0915V33.9452H14.2158C13.7895 31.4135 11.5834 29.4783 8.9327 29.4783C6.28136 29.4783 4.07489 31.4136 3.64844 33.9452H1.78571V11.5879ZM8.9327 38.412C6.96183 38.412 5.35848 36.8085 5.35848 34.8377C5.35848 32.8671 6.96183 31.2639 8.9327 31.2639C10.9029 31.2639 12.5059 32.8671 12.5059 34.8377C12.5059 36.8085 10.9029 38.412 8.9327 38.412ZM41.1169 38.412C39.146 38.412 37.5426 36.8085 37.5426 34.8377C37.5426 32.8671 39.146 31.2639 41.1169 31.2639C43.0871 31.2639 44.6901 32.8671 44.6901 34.8377C44.6901 36.8085 43.0872 38.412 41.1169 38.412ZM46.4 33.9452C45.9737 31.4135 43.7675 29.4783 41.1169 29.4783C38.4655 29.4783 36.259 31.4136 35.8326 33.9452H34.8772V15.1872H41.2471C42.3866 15.1872 43.0982 15.4274 43.726 16.0243H37.4907C36.9977 16.0243 36.5979 16.4241 36.5979 16.9171V21.3877C36.5979 22.8002 37.6894 23.9626 39.0733 24.0753C39.1441 24.0934 39.2182 24.1029 39.2944 24.1029H45.4296C44.9719 24.5837 44.6901 25.2333 44.6901 25.9479V27.7056C44.6901 28.1987 45.0898 28.5985 45.5829 28.5985H48.2143V33.945H46.4V33.9452Z" fill="#42403F"/>
<path d="M4.50223 15.1872H30.3766C30.8696 15.1872 31.2694 14.7874 31.2694 14.2943C31.2694 13.8013 30.8696 13.4015 30.3766 13.4015H4.50223C4.00915 13.4015 3.60938 13.8013 3.60938 14.2943C3.60938 14.7874 4.00915 15.1872 4.50223 15.1872Z" fill="#42403F"/>
</svg>
